<svg xmlns="http://www.w3.org/2000/svg" viewBox="0 0 1280 800" font-family="ui-monospace,SFMono-Regular,Menlo,monospace">
  <!-- Background -->
  <rect width="1280" height="800" fill="#020617"/>

  <!-- Sidebar -->
  <rect x="0" y="0" width="256" height="800" fill="#0f172a" stroke="#1e293b" stroke-width="1"/>
  <rect x="20" y="18" width="32" height="32" rx="8" fill="#2563eb"/>
  <text x="28" y="40" fill="white" font-size="16">🧠</text>
  <text x="62" y="33" fill="white" font-size="13" font-weight="bold">repo-brain</text>
  <text x="62" y="47" fill="#475569" font-size="10">HOSPITAL v2.3</text>
  <line x1="16" y1="68" x2="240" y2="68" stroke="#1e293b" stroke-width="1"/>
  <text x="48" y="99" fill="#64748b" font-size="12">Home</text>
  <text x="48" y="143" fill="#64748b" font-size="12">Dashboard</text>
  <text x="48" y="187" fill="#64748b" font-size="12">Users</text>
  <text x="48" y="231" fill="#64748b" font-size="12">Admin</text>
  <text x="48" y="275" fill="#64748b" font-size="12">Developer</text>
  <text x="48" y="319" fill="#64748b" font-size="12">Settings</text>
  <!-- Docs (active) -->
  <rect x="12" y="340" width="232" height="36" rx="8" fill="#1e3a5f"/>
  <rect x="12" y="340" width="3" height="36" rx="2" fill="#3b82f6"/>
  <text x="48" y="363" fill="#93c5fd" font-size="12" font-weight="600">Docs</text>

  <!-- Top bar -->
  <rect x="256" y="0" width="1024" height="64" fill="#0f172a"/>
  <line x1="256" y1="64" x2="1280" y2="64" stroke="#1e293b" stroke-width="1"/>
  <text x="280" y="38" fill="white" font-size="18" font-weight="900" letter-spacing="2">DOCUMENTATION</text>
  <text x="280" y="52" fill="#475569" font-size="11">Guides · Reference · Architecture</text>

  <!-- Search -->
  <rect x="272" y="80" width="992" height="44" rx="8" fill="#0f172a" stroke="#334155" stroke-width="1.5"/>
  <text x="296" y="107" fill="#475569" font-size="13">🔍  Search documentation…</text>

  <!-- Doc section cards grid (2x3) -->
  <!-- Architecture -->
  <rect x="272" y="144" width="308" height="156" rx="12" fill="#0f172a" stroke="#1e293b" stroke-width="1"/>
  <rect x="272" y="144" width="308" height="4" rx="2">
    <defs>
      <linearGradient id="g1" x1="0%" y1="0%" x2="100%" y2="0%">
        <stop offset="0%" style="stop-color:#2563eb"/>
        <stop offset="100%" style="stop-color:#4f46e5"/>
      </linearGradient>
    </defs>
  </rect>
  <rect x="272" y="144" width="308" height="4" rx="2" fill="#2563eb"/>
  <rect x="292" y="164" width="36" height="36" rx="8">
    <defs>
      <linearGradient id="g1b" x1="0%" y1="0%" x2="100%" y2="100%">
        <stop offset="0%" style="stop-color:#2563eb"/>
        <stop offset="100%" style="stop-color:#4f46e5"/>
      </linearGradient>
    </defs>
  </rect>
  <rect x="292" y="164" width="36" height="36" rx="8" fill="#2563eb"/>
  <text x="302" y="188" fill="white" font-size="18">⚙️</text>
  <text x="292" y="218" fill="white" font-size="13" font-weight="bold">Architecture</text>
  <text x="292" y="234" fill="#64748b" font-size="11">System design, modules,</text>
  <text x="292" y="248" fill="#64748b" font-size="11">and data flow.</text>
  <text x="292" y="268" fill="#3b82f6" font-size="11">4 articles →</text>

  <!-- Deployment -->
  <rect x="596" y="144" width="308" height="156" rx="12" fill="#0f172a" stroke="#1e293b" stroke-width="1"/>
  <rect x="596" y="144" width="308" height="4" rx="2" fill="#10b981"/>
  <rect x="616" y="164" width="36" height="36" rx="8" fill="#10b981"/>
  <text x="626" y="188" fill="white" font-size="18">🌐</text>
  <text x="616" y="218" fill="white" font-size="13" font-weight="bold">Deployment</text>
  <text x="616" y="234" fill="#64748b" font-size="11">Vercel, env vars,</text>
  <text x="616" y="248" fill="#64748b" font-size="11">CI/CD and releases.</text>
  <text x="616" y="268" fill="#10b981" font-size="11">4 articles →</text>

  <!-- User Guide -->
  <rect x="920" y="144" width="344" height="156" rx="12" fill="#0f172a" stroke="#1e293b" stroke-width="1"/>
  <rect x="920" y="144" width="344" height="4" rx="2" fill="#8b5cf6"/>
  <rect x="940" y="164" width="36" height="36" rx="8" fill="#8b5cf6"/>
  <text x="950" y="188" fill="white" font-size="18">📖</text>
  <text x="940" y="218" fill="white" font-size="13" font-weight="bold">User Guide</text>
  <text x="940" y="234" fill="#64748b" font-size="11">Dashboard, brain scans,</text>
  <text x="940" y="248" fill="#64748b" font-size="11">alerts and reports.</text>
  <text x="940" y="268" fill="#8b5cf6" font-size="11">4 articles →</text>

  <!-- Admin Guide (expanded) -->
  <rect x="272" y="316" width="308" height="212" rx="12" fill="#0f172a" stroke="#1e293b" stroke-width="1"/>
  <rect x="272" y="316" width="308" height="4" rx="2" fill="#ef4444"/>
  <rect x="292" y="336" width="36" height="36" rx="8" fill="#ef4444"/>
  <text x="302" y="360" fill="white" font-size="18">🛡️</text>
  <text x="292" y="390" fill="white" font-size="13" font-weight="bold">Admin Guide</text>
  <text x="292" y="406" fill="#64748b" font-size="11">User mgmt, roles, config.</text>
  <!-- expanded articles -->
  <line x1="280" y1="420" x2="572" y2="420" stroke="#1e293b" stroke-width="1"/>
  <rect x="280" y="428" width="292" height="28" rx="4" fill="rgba(59,130,246,0.05)"/>
  <text x="296" y="447" fill="#64748b" font-size="12">› User Management</text>
  <text x="548" y="447" fill="#3b82f6" font-size="11">↗</text>
  <rect x="280" y="460" width="292" height="28" rx="4" fill="transparent"/>
  <text x="296" y="479" fill="#64748b" font-size="12">› Role &amp; Permissions</text>
  <text x="548" y="479" fill="#3b82f6" font-size="11">↗</text>
  <rect x="280" y="492" width="292" height="28" rx="4" fill="transparent"/>
  <text x="296" y="511" fill="#64748b" font-size="12">› Audit Logs</text>
  <text x="548" y="511" fill="#3b82f6" font-size="11">↗</text>

  <!-- Developer Guide -->
  <rect x="596" y="316" width="308" height="156" rx="12" fill="#0f172a" stroke="#1e293b" stroke-width="1"/>
  <rect x="596" y="316" width="308" height="4" rx="2" fill="#f59e0b"/>
  <rect x="616" y="336" width="36" height="36" rx="8" fill="#f59e0b"/>
  <text x="626" y="360" fill="white" font-size="18">💻</text>
  <text x="616" y="390" fill="white" font-size="13" font-weight="bold">Developer Guide</text>
  <text x="616" y="406" fill="#64748b" font-size="11">CLI, API reference,</text>
  <text x="616" y="420" fill="#64748b" font-size="11">integration testing.</text>
  <text x="616" y="440" fill="#f59e0b" font-size="11">4 articles →</text>

  <!-- Security -->
  <rect x="920" y="316" width="344" height="156" rx="12" fill="#0f172a" stroke="#1e293b" stroke-width="1"/>
  <rect x="920" y="316" width="344" height="4" rx="2" fill="#06b6d4"/>
  <rect x="940" y="336" width="36" height="36" rx="8" fill="#06b6d4"/>
  <text x="950" y="360" fill="white" font-size="18">🔐</text>
  <text x="940" y="390" fill="white" font-size="13" font-weight="bold">Security</text>
  <text x="940" y="406" fill="#64748b" font-size="11">RBAC, secret mgmt,</text>
  <text x="940" y="420" fill="#64748b" font-size="11">incident response.</text>
  <text x="940" y="440" fill="#06b6d4" font-size="11">4 articles →</text>

  <!-- Quick References bar -->
  <rect x="272" y="548" width="992" height="80" rx="12" fill="rgba(37,99,235,0.05)" stroke="rgba(37,99,235,0.2)" stroke-width="1"/>
  <text x="296" y="576" fill="white" font-size="13" font-weight="bold">Quick References</text>

  <rect x="296" y="588" width="120" height="28" rx="6" fill="#1e293b" stroke="#334155" stroke-width="1"/>
  <text x="316" y="607" fill="#94a3b8" font-size="12">📄 README</text>

  <rect x="428" y="588" width="130" height="28" rx="6" fill="#1e293b" stroke="#334155" stroke-width="1"/>
  <text x="444" y="607" fill="#94a3b8" font-size="12">📝 CHANGELOG</text>

  <rect x="570" y="588" width="134" height="28" rx="6" fill="#1e293b" stroke="#334155" stroke-width="1"/>
  <text x="586" y="607" fill="#94a3b8" font-size="12">🏗️ Architecture</text>

  <rect x="716" y="588" width="126" height="28" rx="6" fill="#1e293b" stroke="#334155" stroke-width="1"/>
  <text x="732" y="607" fill="#94a3b8" font-size="12">🎨 UI/UX Guide</text>
</svg>