<svg xmlns="http://www.w3.org/2000/svg" viewBox="0 0 1280 800" font-family="ui-monospace,SFMono-Regular,Menlo,monospace">
  <!-- Background -->
  <rect width="1280" height="800" fill="#020617"/>

  <!-- Sidebar -->
  <rect x="0" y="0" width="256" height="800" fill="#0f172a"/>
  <rect x="0" y="0" width="256" height="800" fill="none" stroke="#1e293b" stroke-width="1"/>

  <!-- Logo -->
  <rect x="20" y="18" width="32" height="32" rx="8" fill="#2563eb"/>
  <text x="28" y="40" fill="white" font-size="18" font-weight="bold">🧠</text>
  <text x="62" y="33" fill="white" font-size="13" font-weight="bold">repo-brain</text>
  <text x="62" y="47" fill="#475569" font-size="10">HOSPITAL v2.3</text>

  <!-- Divider -->
  <line x1="16" y1="68" x2="240" y2="68" stroke="#1e293b" stroke-width="1"/>

  <!-- Nav items -->
  <!-- Home (active) -->
  <rect x="12" y="76" width="232" height="36" rx="8" fill="#1e3a5f"/>
  <rect x="12" y="76" width="3" height="36" rx="2" fill="#3b82f6"/>
  <circle cx="32" cy="94" r="8" fill="none" stroke="#3b82f6" stroke-width="1.5"/>
  <text x="48" y="99" fill="#93c5fd" font-size="12" font-weight="600">Home</text>

  <rect x="12" y="120" width="232" height="36" rx="8" fill="transparent"/>
  <circle cx="32" cy="138" r="8" fill="none" stroke="#475569" stroke-width="1.5"/>
  <text x="48" y="143" fill="#64748b" font-size="12">Dashboard</text>

  <rect x="12" y="164" width="232" height="36" rx="8" fill="transparent"/>
  <circle cx="32" cy="182" r="8" fill="none" stroke="#475569" stroke-width="1.5"/>
  <text x="48" y="187" fill="#64748b" font-size="12">Users</text>

  <rect x="12" y="208" width="232" height="36" rx="8" fill="transparent"/>
  <circle cx="32" cy="226" r="8" fill="none" stroke="#475569" stroke-width="1.5"/>
  <text x="48" y="231" fill="#64748b" font-size="12">Admin</text>

  <rect x="12" y="252" width="232" height="36" rx="8" fill="transparent"/>
  <circle cx="32" cy="270" r="8" fill="none" stroke="#475569" stroke-width="1.5"/>
  <text x="48" y="275" fill="#64748b" font-size="12">Developer</text>

  <rect x="12" y="296" width="232" height="36" rx="8" fill="transparent"/>
  <circle cx="32" cy="314" r="8" fill="none" stroke="#475569" stroke-width="1.5"/>
  <text x="48" y="319" fill="#64748b" font-size="12">Settings</text>

  <rect x="12" y="340" width="232" height="36" rx="8" fill="transparent"/>
  <circle cx="32" cy="358" r="8" fill="none" stroke="#475569" stroke-width="1.5"/>
  <text x="48" y="363" fill="#64748b" font-size="12">Docs</text>

  <!-- Role badge bottom -->
  <rect x="12" y="756" width="232" height="32" rx="8" fill="#0f172a" stroke="#1e293b" stroke-width="1"/>
  <circle cx="28" cy="772" r="8" fill="#1e293b"/>
  <text x="22" y="776" fill="#64748b" font-size="9">👤</text>
  <text x="44" y="770" fill="#94a3b8" font-size="11">admin@admin.com</text>
  <text x="44" y="782" fill="#3b82f6" font-size="9" font-weight="bold">ADMIN</text>

  <!-- Main Content -->
  <!-- Top bar -->
  <rect x="256" y="0" width="1024" height="64" fill="#0f172a"/>
  <line x1="256" y1="64" x2="1280" y2="64" stroke="#1e293b" stroke-width="1"/>
  <text x="280" y="38" fill="white" font-size="18" font-weight="900" letter-spacing="2">HOME</text>
  <rect x="1120" y="16" width="136" height="32" rx="8" fill="#2563eb"/>
  <text x="1150" y="37" fill="white" font-size="12" font-weight="600">+ New Brain</text>

  <!-- Status Banner -->
  <rect x="272" y="80" width="992" height="52" rx="12" fill="#052e16" stroke="#166534" stroke-width="1"/>
  <circle cx="296" cy="106" r="6" fill="#22c55e"/>
  <text x="310" y="111" fill="#86efac" font-size="13" font-weight="600">All systems operational  ·  42 repos monitored  ·  Last scan: 3 min ago</text>
  <text x="1180" y="111" fill="#22c55e" font-size="12" font-weight="bold">● LIVE</text>

  <!-- Feature Cards Grid -->
  <rect x="272" y="152" width="228" height="120" rx="12" fill="#0f172a" stroke="#1e293b" stroke-width="1"/>
  <rect x="272" y="152" width="228" height="4" rx="2" fill="#3b82f6"/>
  <text x="292" y="184" fill="#3b82f6" font-size="24">🛡️</text>
  <text x="292" y="208" fill="white" font-size="14" font-weight="bold">Security Guard</text>
  <text x="292" y="225" fill="#64748b" font-size="11">Scans repos for CVEs,</text>
  <text x="292" y="239" fill="#64748b" font-size="11">leaked secrets, and misconfigs</text>
  <text x="292" y="258" fill="#22c55e" font-size="11">● Active</text>

  <rect x="514" y="152" width="228" height="120" rx="12" fill="#0f172a" stroke="#1e293b" stroke-width="1"/>
  <rect x="514" y="152" width="228" height="4" rx="2" fill="#8b5cf6"/>
  <text x="534" y="184" fill="#8b5cf6" font-size="24">⚡</text>
  <text x="534" y="208" fill="white" font-size="14" font-weight="bold">Auto-Healer</text>
  <text x="534" y="225" fill="#64748b" font-size="11">Fixes broken CI, normalizes</text>
  <text x="534" y="239" fill="#64748b" font-size="11">configs, repairs drift</text>
  <text x="534" y="258" fill="#22c55e" font-size="11">● Active</text>

  <rect x="756" y="152" width="228" height="120" rx="12" fill="#0f172a" stroke="#1e293b" stroke-width="1"/>
  <rect x="756" y="152" width="228" height="4" rx="2" fill="#f59e0b"/>
  <text x="776" y="184" fill="#f59e0b" font-size="24">🔍</text>
  <text x="776" y="208" fill="white" font-size="14" font-weight="bold">Oracle Scanner</text>
  <text x="776" y="225" fill="#64748b" font-size="11">AI-powered code analysis</text>
  <text x="776" y="239" fill="#64748b" font-size="11">with predictive diagnostics</text>
  <text x="776" y="258" fill="#22c55e" font-size="11">● Active</text>

  <rect x="998" y="152" width="228" height="120" rx="12" fill="#0f172a" stroke="#1e293b" stroke-width="1"/>
  <rect x="998" y="152" width="228" height="4" rx="2" fill="#10b981"/>
  <text x="1018" y="184" fill="#10b981" font-size="24">🌐</text>
  <text x="1018" y="208" fill="white" font-size="14" font-weight="bold">Fleet Manager</text>
  <text x="1018" y="225" fill="#64748b" font-size="11">Orchestrate 1–500 repos</text>
  <text x="1018" y="239" fill="#64748b" font-size="11">with unified governance</text>
  <text x="1018" y="258" fill="#22c55e" font-size="11">● Active</text>

  <!-- Stats row -->
  <rect x="272" y="292" width="236" height="80" rx="12" fill="#0f172a" stroke="#1e293b" stroke-width="1"/>
  <text x="292" y="322" fill="#64748b" font-size="11" letter-spacing="1">MONITORED REPOS</text>
  <text x="292" y="354" fill="#3b82f6" font-size="32" font-weight="900">42</text>

  <rect x="520" y="292" width="236" height="80" rx="12" fill="#0f172a" stroke="#1e293b" stroke-width="1"/>
  <text x="540" y="322" fill="#64748b" font-size="11" letter-spacing="1">OPEN ALERTS</text>
  <text x="540" y="354" fill="#f59e0b" font-size="32" font-weight="900">7</text>

  <rect x="768" y="292" width="236" height="80" rx="12" fill="#0f172a" stroke="#1e293b" stroke-width="1"/>
  <text x="788" y="322" fill="#64748b" font-size="11" letter-spacing="1">RUNS TODAY</text>
  <text x="788" y="354" fill="#10b981" font-size="32" font-weight="900">128</text>

  <rect x="1016" y="292" width="236" height="80" rx="12" fill="#0f172a" stroke="#1e293b" stroke-width="1"/>
  <text x="1036" y="322" fill="#64748b" font-size="11" letter-spacing="1">SUCCESS RATE</text>
  <text x="1036" y="354" fill="#22c55e" font-size="32" font-weight="900">98%</text>

  <!-- Quick Actions -->
  <text x="272" y="410" fill="white" font-size="15" font-weight="bold">Quick Actions</text>
  <rect x="272" y="424" width="180" height="40" rx="8" fill="#1e3a5f" stroke="#2563eb" stroke-width="1"/>
  <text x="310" y="449" fill="#93c5fd" font-size="13">→ Go to Dashboard</text>

  <rect x="464" y="424" width="180" height="40" rx="8" fill="#1a1a2e" stroke="#8b5cf6" stroke-width="1"/>
  <text x="494" y="449" fill="#c4b5fd" font-size="13">→ View Alerts</text>

  <rect x="656" y="424" width="180" height="40" rx="8" fill="#0c1a0e" stroke="#166534" stroke-width="1"/>
  <text x="680" y="449" fill="#86efac" font-size="13">→ Manage Brains</text>

  <!-- Recent Activity -->
  <text x="272" y="502" fill="white" font-size="15" font-weight="bold">Recent Activity</text>
  <rect x="272" y="516" width="980" height="220" rx="12" fill="#0f172a" stroke="#1e293b" stroke-width="1"/>

  <!-- Activity rows -->
  <rect x="288" y="532" width="948" height="32" rx="6" fill="#1e293b"/>
  <circle cx="306" cy="548" r="5" fill="#22c55e"/>
  <text x="320" y="553" fill="#94a3b8" font-size="12">brain-scan completed: repo/auth-service — 0 critical, 2 warnings</text>
  <text x="1150" y="553" fill="#475569" font-size="11">2m ago</text>

  <rect x="288" y="572" width="948" height="32" rx="6" fill="transparent"/>
  <circle cx="306" cy="588" r="5" fill="#f59e0b"/>
  <text x="320" y="593" fill="#94a3b8" font-size="12">alert raised: CVE-2024-3094 detected in repo/sshd-service</text>
  <text x="1150" y="593" fill="#475569" font-size="11">15m ago</text>

  <rect x="288" y="612" width="948" height="32" rx="6" fill="transparent"/>
  <circle cx="306" cy="628" r="5" fill="#3b82f6"/>
  <text x="320" y="633" fill="#94a3b8" font-size="12">brain registered: repo/payment-gateway — auto-discovery</text>
  <text x="1150" y="633" fill="#475569" font-size="11">1h ago</text>

  <rect x="288" y="652" width="948" height="32" rx="6" fill="transparent"/>
  <circle cx="306" cy="668" r="5" fill="#22c55e"/>
  <text x="320" y="673" fill="#94a3b8" font-size="12">CI repair applied: repo/frontend — broken workflow fixed</text>
  <text x="1150" y="673" fill="#475569" font-size="11">3h ago</text>

  <rect x="288" y="692" width="948" height="32" rx="6" fill="transparent"/>
  <circle cx="306" cy="708" r="5" fill="#8b5cf6"/>
  <text x="320" y="713" fill="#94a3b8" font-size="12">user admin@admin.com logged in from 192.168.1.1</text>
  <text x="1150" y="713" fill="#475569" font-size="11">4h ago</text>
</svg>