<svg xmlns="http://www.w3.org/2000/svg" viewBox="0 0 1280 800" font-family="ui-monospace,SFMono-Regular,Menlo,monospace">
  <!-- Background -->
  <rect width="1280" height="800" fill="#020617"/>

  <!-- Sidebar -->
  <rect x="0" y="0" width="256" height="800" fill="#0f172a" stroke="#1e293b" stroke-width="1"/>
  <rect x="20" y="18" width="32" height="32" rx="8" fill="#2563eb"/>
  <text x="28" y="40" fill="white" font-size="16">🧠</text>
  <text x="62" y="33" fill="white" font-size="13" font-weight="bold">repo-brain</text>
  <text x="62" y="47" fill="#475569" font-size="10">HOSPITAL v2.3</text>
  <line x1="16" y1="68" x2="240" y2="68" stroke="#1e293b" stroke-width="1"/>
  <text x="48" y="99" fill="#64748b" font-size="12">Home</text>
  <text x="48" y="143" fill="#64748b" font-size="12">Dashboard</text>
  <!-- Users (active) -->
  <rect x="12" y="164" width="232" height="36" rx="8" fill="#1e3a5f"/>
  <rect x="12" y="164" width="3" height="36" rx="2" fill="#3b82f6"/>
  <text x="48" y="187" fill="#93c5fd" font-size="12" font-weight="600">Users</text>
  <text x="48" y="231" fill="#64748b" font-size="12">Admin</text>
  <text x="48" y="275" fill="#64748b" font-size="12">Developer</text>
  <text x="48" y="319" fill="#64748b" font-size="12">Settings</text>
  <text x="48" y="363" fill="#64748b" font-size="12">Docs</text>

  <!-- Top bar -->
  <rect x="256" y="0" width="1024" height="64" fill="#0f172a"/>
  <line x1="256" y1="64" x2="1280" y2="64" stroke="#1e293b" stroke-width="1"/>
  <text x="280" y="38" fill="white" font-size="18" font-weight="900" letter-spacing="2">USER MANAGEMENT</text>
  <text x="280" y="52" fill="#475569" font-size="11">Admin only  ·  Manage roles and access</text>

  <!-- Search + filter bar -->
  <rect x="272" y="80" width="640" height="40" rx="8" fill="#0f172a" stroke="#334155" stroke-width="1"/>
  <text x="296" y="105" fill="#475569" font-size="13">🔍  Search users…</text>

  <rect x="928" y="80" width="120" height="40" rx="8" fill="#0f172a" stroke="#334155" stroke-width="1"/>
  <text x="950" y="105" fill="#64748b" font-size="12">Filter: All ▾</text>

  <rect x="1064" y="80" width="108" height="40" rx="8" fill="rgba(239,68,68,0.1)" stroke="#991b1b" stroke-width="1"/>
  <text x="1080" y="105" fill="#fca5a5" font-size="12">🔒 Admin only</text>

  <!-- Users table -->
  <rect x="272" y="136" width="992" height="40" rx="8" fill="#1e293b"/>
  <text x="296" y="161" fill="#64748b" font-size="11" letter-spacing="1">USER</text>
  <text x="580" y="161" fill="#64748b" font-size="11" letter-spacing="1">ROLE</text>
  <text x="740" y="161" fill="#64748b" font-size="11" letter-spacing="1">JOINED</text>
  <text x="940" y="161" fill="#64748b" font-size="11" letter-spacing="1">ACTIONS</text>

  <!-- Row 1 -->
  <rect x="272" y="184" width="992" height="52" rx="8" fill="#0f172a" stroke="#1e293b" stroke-width="1"/>
  <circle cx="304" cy="210" r="16" fill="#1e3a5f"/>
  <text x="296" y="215" fill="#60a5fa" font-size="14" font-weight="bold">A</text>
  <text x="328" y="205" fill="white" font-size="13" font-weight="600">admin@admin.com</text>
  <text x="328" y="221" fill="#475569" font-size="11">admin@admin.com</text>
  <rect x="564" y="196" width="56" height="20" rx="10" fill="rgba(239,68,68,0.15)"/>
  <text x="576" y="211" fill="#fca5a5" font-size="11" font-weight="bold">admin</text>
  <text x="730" y="212" fill="#64748b" font-size="12">Mar 1, 2026</text>
  <rect x="928" y="196" width="72" height="24" rx="6" fill="#1e293b" stroke="#334155" stroke-width="1"/>
  <text x="944" y="213" fill="#94a3b8" font-size="11">Edit role</text>
  <rect x="1010" y="196" width="24" height="24" rx="6" fill="rgba(239,68,68,0.1)" stroke="#7f1d1d" stroke-width="1"/>
  <text x="1016" y="213" fill="#ef4444" font-size="14">🗑</text>

  <!-- Row 2 -->
  <rect x="272" y="244" width="992" height="52" rx="8" fill="#0f172a" stroke="#1e293b" stroke-width="1"/>
  <circle cx="304" cy="270" r="16" fill="#1a1130"/>
  <text x="296" y="275" fill="#a78bfa" font-size="14" font-weight="bold">D</text>
  <text x="328" y="265" fill="white" font-size="13" font-weight="600">dev@example.com</text>
  <text x="328" y="281" fill="#475569" font-size="11">dev@example.com</text>
  <rect x="564" y="256" width="76" height="20" rx="10" fill="rgba(139,92,246,0.15)"/>
  <text x="572" y="271" fill="#c4b5fd" font-size="11" font-weight="bold">developer</text>
  <text x="730" y="272" fill="#64748b" font-size="12">Mar 5, 2026</text>
  <rect x="928" y="256" width="72" height="24" rx="6" fill="#1e293b" stroke="#334155" stroke-width="1"/>
  <text x="944" y="273" fill="#94a3b8" font-size="11">Edit role</text>
  <rect x="1010" y="256" width="24" height="24" rx="6" fill="rgba(239,68,68,0.1)" stroke="#7f1d1d" stroke-width="1"/>
  <text x="1016" y="273" fill="#ef4444" font-size="14">🗑</text>

  <!-- Row 3 -->
  <rect x="272" y="304" width="992" height="52" rx="8" fill="#0f172a" stroke="#1e293b" stroke-width="1"/>
  <circle cx="304" cy="330" r="16" fill="#052e16"/>
  <text x="297" y="335" fill="#4ade80" font-size="14" font-weight="bold">O</text>
  <text x="328" y="325" fill="white" font-size="13" font-weight="600">operator@corp.io</text>
  <text x="328" y="341" fill="#475569" font-size="11">operator@corp.io</text>
  <rect x="564" y="316" width="68" height="20" rx="10" fill="rgba(16,185,129,0.15)"/>
  <text x="572" y="331" fill="#6ee7b7" font-size="11" font-weight="bold">operator</text>
  <text x="730" y="332" fill="#64748b" font-size="12">Mar 8, 2026</text>
  <rect x="928" y="316" width="72" height="24" rx="6" fill="#1e293b" stroke="#334155" stroke-width="1"/>
  <text x="944" y="333" fill="#94a3b8" font-size="11">Edit role</text>
  <rect x="1010" y="316" width="24" height="24" rx="6" fill="rgba(239,68,68,0.1)" stroke="#7f1d1d" stroke-width="1"/>
  <text x="1016" y="333" fill="#ef4444" font-size="14">🗑</text>

  <!-- Row 4 -->
  <rect x="272" y="364" width="992" height="52" rx="8" fill="#0f172a" stroke="#1e293b" stroke-width="1"/>
  <circle cx="304" cy="390" r="16" fill="#1c1917"/>
  <text x="298" y="395" fill="#f5f5f4" font-size="14" font-weight="bold">V</text>
  <text x="328" y="385" fill="white" font-size="13" font-weight="600">viewer@example.com</text>
  <text x="328" y="401" fill="#475569" font-size="11">viewer@example.com</text>
  <rect x="564" y="376" width="56" height="20" rx="10" fill="#1e293b"/>
  <text x="576" y="391" fill="#64748b" font-size="11" font-weight="bold">viewer</text>
  <text x="730" y="392" fill="#64748b" font-size="12">Mar 10, 2026</text>
  <rect x="928" y="376" width="72" height="24" rx="6" fill="#1e293b" stroke="#334155" stroke-width="1"/>
  <text x="944" y="393" fill="#94a3b8" font-size="11">Edit role</text>
  <rect x="1010" y="376" width="24" height="24" rx="6" fill="rgba(239,68,68,0.1)" stroke="#7f1d1d" stroke-width="1"/>
  <text x="1016" y="393" fill="#ef4444" font-size="14">🗑</text>

  <!-- RBAC legend -->
  <rect x="272" y="440" width="992" height="80" rx="12" fill="rgba(239,68,68,0.05)" stroke="rgba(239,68,68,0.2)" stroke-width="1"/>
  <text x="296" y="466" fill="white" font-size="13" font-weight="bold">🔒  Role Hierarchy</text>
  <rect x="296" y="478" width="60" height="18" rx="9" fill="rgba(239,68,68,0.15)"/>
  <text x="308" y="491" fill="#fca5a5" font-size="10">admin 5</text>
  <rect x="368" y="478" width="78" height="18" rx="9" fill="rgba(139,92,246,0.15)"/>
  <text x="376" y="491" fill="#c4b5fd" font-size="10">developer 4</text>
  <rect x="458" y="478" width="74" height="18" rx="9" fill="rgba(16,185,129,0.15)"/>
  <text x="466" y="491" fill="#6ee7b7" font-size="10">operator 3</text>
  <rect x="544" y="478" width="66" height="18" rx="9" fill="rgba(245,158,11,0.15)"/>
  <text x="552" y="491" fill="#fcd34d" font-size="10">auditor 2</text>
  <rect x="622" y="478" width="52" height="18" rx="9" fill="#1e293b"/>
  <text x="630" y="491" fill="#64748b" font-size="10">viewer 1</text>

  <!-- Pagination -->
  <text x="272" y="558" fill="#64748b" font-size="12">Showing 4 of 4 users</text>
</svg>